<?xml version="1.0" encoding="iso-8859-1"?>
<!-- Generator: Adobe Illustrator 19.0.0, SVG Export Plug-In . SVG Version: 6.00 Build 0)  -->
<svg version="1.1" id="Capa_1" xmlns="http://www.w3.org/2000/svg" xmlns:xlink="http://www.w3.org/1999/xlink" x="0px" y="0px"
	 viewBox="0 0 479.852 479.852" style="enable-background:new 0 0 479.852 479.852;" xml:space="preserve">
<g>
	<g>
		<path d="M439.335,144.069c0-0.256,0-0.504,0.056-0.76c5.338-42.118-24.478-80.589-66.596-85.928
			c-3.384-0.429-6.793-0.632-10.204-0.608c-2.504,0-4.992,0.136-7.456,0.376c-0.8,0.072-1.6,0.216-2.4,0.312
			c-1.656,0.216-3.312,0.44-4.944,0.76c-0.864,0.168-1.72,0.384-2.576,0.576c-1.552,0.36-3.088,0.744-4.608,1.192
			c-0.8,0.24-1.6,0.504-2.4,0.8c-1.6,0.52-3.104,1.08-4.624,1.696c-0.696,0.28-1.376,0.56-2.064,0.864
			c-1.6,0.712-3.2,1.488-4.8,2.312c-0.536,0.28-1.072,0.552-1.6,0.848c-1.704,0.944-3.36,1.96-4.992,3.032
			c-0.368,0.248-0.752,0.472-1.12,0.72c-1.776,1.216-3.504,2.52-5.184,3.88c-0.192,0.16-0.4,0.304-0.584,0.456
			s-0.504,0.376-0.744,0.584c-12.241-31.015-41.148-52.291-74.4-54.76c-2.24-0.176-4.496-0.272-6.776-0.272
			c-2.792,0-5.6,0.16-8.288,0.424c-1.088,0.104-2.144,0.288-3.2,0.424c-1.6,0.216-3.2,0.432-4.8,0.736
			c-1.352,0.256-2.68,0.576-4,0.896c-1.2,0.288-2.4,0.584-3.592,0.92c-1.512,0.432-3.008,0.912-4.488,1.424
			c-0.888,0.312-1.776,0.632-2.648,0.968c-1.672,0.64-3.32,1.312-4.944,2.048c-0.52,0.232-1.032,0.496-1.544,0.744
			c-12.861,6.155-24.028,15.351-32.536,26.792l-0.168,0.216c-1.397,1.899-2.731,3.851-4,5.856l-0.16,0.272
			c-5.214,8.398-8.948,17.628-11.04,27.288c-32.318-14.315-70.121,0.279-84.436,32.597c-2.576,5.816-4.271,11.983-5.028,18.299
			c-35.099,4.175-60.168,36.013-55.993,71.111c3.829,32.193,31.125,56.437,63.545,56.441h352
			c35.346-0.081,63.934-28.801,63.853-64.147C479.792,177.23,463.734,153.693,439.335,144.069z M459.897,223.147
			c-7.715,17.334-24.925,28.491-43.898,28.458h-352c-26.509-0.196-47.84-21.844-47.644-48.353
			c0.173-23.4,17.195-43.266,40.292-47.023c1.325,10.049,5.039,19.634,10.832,27.952c2.453,3.674,7.421,4.664,11.096,2.211
			s4.664-7.421,2.211-11.096c-0.06-0.09-0.122-0.18-0.186-0.267c-15.27-21.567-10.165-51.43,11.403-66.7
			c15.418-10.916,35.815-11.739,52.061-2.1c0,0.408-0.064,0.8-0.064,1.2c-0.026,12.186,2.517,24.24,7.464,35.376
			c1.692,4.081,6.372,6.018,10.454,4.326s6.018-6.372,4.326-10.454c-0.049-0.119-0.101-0.236-0.156-0.352
			c-4.031-9.085-6.106-18.917-6.088-28.856c0-1.68,0.136-3.32,0.248-4.976v-0.048c0.469-6.806,1.924-13.508,4.32-19.896v-0.056
			c0.779-2.075,1.648-4.099,2.608-6.072v-0.048c5.803-11.882,14.769-21.936,25.912-29.056l0.104-0.064
			c1.792-1.144,3.648-2.208,5.544-3.2l0.408-0.2c1.808-0.92,3.656-1.776,5.552-2.544c0.296-0.12,0.6-0.216,0.904-0.328
			c1.744-0.688,3.52-1.32,5.328-1.864c0.584-0.176,1.184-0.296,1.768-0.456c1.6-0.432,3.144-0.856,4.752-1.176
			c1.032-0.2,2.088-0.32,3.136-0.48c1.216-0.184,2.4-0.408,3.664-0.536c2.32-0.224,4.672-0.36,7.048-0.36
			c2.064,0,4.112,0.096,6.144,0.272h0.272c29.586,2.842,54.363,23.618,62.32,52.256c-9.694,13.192-14.924,29.133-14.928,45.504
			c0,4.418,3.582,8,8,8s8-3.582,8-8c0.023-14.231,5.008-28.009,14.096-38.96c1.312-1.6,2.704-3.096,4.152-4.536
			c0.72-0.72,1.496-1.368,2.248-2.048c0.752-0.68,1.6-1.472,2.456-2.152c0.856-0.68,1.768-1.344,2.672-2
			c0.904-0.656,1.6-1.168,2.448-1.712c0.848-0.544,1.888-1.176,2.856-1.736c0.968-0.56,1.768-0.992,2.68-1.456
			c0.912-0.464,1.92-0.96,2.904-1.4c0.984-0.44,2.016-0.848,3.032-1.24c1.016-0.392,1.88-0.728,2.84-1.04
			c1.16-0.384,2.336-0.696,3.52-1.008c0.872-0.232,1.736-0.48,2.624-0.672c1.4-0.304,2.816-0.512,4.24-0.72
			c0.72-0.096,1.424-0.248,2.152-0.328c2.189-0.237,4.39-0.357,6.592-0.36c33.889,0.053,61.344,27.519,61.384,61.408
			c-0.008,2.138-0.131,4.275-0.368,6.4c-0.04,0.32-0.088,0.632-0.128,0.944c-0.24,1.92-0.56,3.848-0.984,5.792
			c-2.075,9.59-6.421,18.542-12.672,26.104c-2.611,3.565-1.838,8.57,1.727,11.181c3.269,2.395,7.813,1.966,10.577-0.997
			c5.854-7.065,10.403-15.116,13.432-23.776C459.782,170.599,470.668,198.948,459.897,223.147z"/>
	</g>
</g>
<g>
	<g>
		<path d="M213.459,285.949c-3.1-2.994-8.015-2.994-11.116,0l-32,32c-3.124,3.125-3.123,8.19,0.002,11.314
			c1.5,1.499,3.534,2.342,5.654,2.342c2.122,0,4.156-0.844,5.656-2.344l32-32C216.724,294.083,216.637,289.018,213.459,285.949z"/>
	</g>
</g>
<g>
	<g>
		<path d="M149.655,349.949c-3.124-3.123-8.188-3.123-11.312,0l-32,32c-3.178,3.069-3.266,8.134-0.196,11.312
			c3.069,3.178,8.134,3.266,11.312,0.196c0.067-0.064,0.132-0.13,0.196-0.196l32-32
			C152.778,358.137,152.778,353.073,149.655,349.949z"/>
	</g>
</g>
<g>
	<g>
		<path d="M85.459,413.949c-3.1-2.994-8.015-2.994-11.116,0l-32,32c-3.178,3.07-3.266,8.134-0.196,11.312
			c3.07,3.178,8.134,3.266,11.312,0.196c0.067-0.064,0.132-0.13,0.196-0.196l32-32C88.724,422.083,88.637,417.018,85.459,413.949z"
			/>
	</g>
</g>
<g>
	<g>
		<path d="M117.459,285.949c-3.1-2.994-8.015-2.994-11.116,0l-32,32c-3.124,3.125-3.123,8.19,0.002,11.314
			c1.5,1.499,3.534,2.342,5.654,2.342c2.122,0,4.156-0.844,5.656-2.344l32-32C120.724,294.083,120.637,289.018,117.459,285.949z"/>
	</g>
</g>
<g>
	<g>
		<path d="M53.655,349.949c-3.124-3.123-8.188-3.123-11.312,0l-32,32c-3.178,3.07-3.266,8.134-0.196,11.312
			s8.134,3.266,11.312,0.196c0.067-0.064,0.132-0.13,0.196-0.196l32-32C56.778,358.137,56.778,353.073,53.655,349.949z"/>
	</g>
</g>
<g>
	<g>
		<path d="M309.459,285.949c-3.1-2.995-8.016-2.995-11.116,0l-32,32c-3.124,3.125-3.123,8.19,0.002,11.314
			c1.5,1.499,3.534,2.342,5.654,2.342c2.122,0,4.156-0.844,5.656-2.344l32-32C312.725,294.083,312.637,289.019,309.459,285.949z"/>
	</g>
</g>
<g>
	<g>
		<path d="M245.655,349.949c-3.124-3.123-8.188-3.123-11.312,0l-32,32c-3.178,3.069-3.266,8.134-0.196,11.312
			c3.069,3.178,8.134,3.266,11.312,0.196c0.067-0.064,0.132-0.13,0.196-0.196l32-32
			C248.778,358.137,248.778,353.073,245.655,349.949z"/>
	</g>
</g>
<g>
	<g>
		<path d="M181.459,413.949c-3.1-2.994-8.015-2.994-11.116,0l-32,32c-3.178,3.069-3.266,8.134-0.196,11.312
			c3.069,3.178,8.134,3.266,11.312,0.196c0.067-0.064,0.132-0.13,0.196-0.196l32-32
			C184.724,422.083,184.637,417.018,181.459,413.949z"/>
	</g>
</g>
<g>
	<g>
		<path d="M405.459,285.949c-3.1-2.995-8.016-2.995-11.116,0l-32,32c-3.178,3.07-3.266,8.134-0.196,11.312
			c3.07,3.178,8.134,3.266,11.312,0.196c0.066-0.064,0.132-0.13,0.196-0.196l32-32C408.725,294.083,408.637,289.019,405.459,285.949
			z"/>
	</g>
</g>
<g>
	<g>
		<path d="M341.459,349.949c-3.1-2.995-8.016-2.995-11.116,0l-32,32c-3.178,3.07-3.266,8.134-0.196,11.312
			c3.07,3.178,8.134,3.266,11.312,0.196c0.066-0.064,0.132-0.13,0.196-0.196l32-32C344.725,358.083,344.637,353.019,341.459,349.949
			z"/>
	</g>
</g>
<g>
	<g>
		<path d="M277.459,413.949c-3.1-2.995-8.016-2.995-11.116,0l-32,32c-3.178,3.07-3.266,8.134-0.196,11.312
			c3.07,3.178,8.134,3.266,11.312,0.196c0.066-0.064,0.132-0.13,0.196-0.196l32-32C280.725,422.083,280.637,417.019,277.459,413.949
			z"/>
	</g>
</g>
<g>
</g>
<g>
</g>
<g>
</g>
<g>
</g>
<g>
</g>
<g>
</g>
<g>
</g>
<g>
</g>
<g>
</g>
<g>
</g>
<g>
</g>
<g>
</g>
<g>
</g>
<g>
</g>
<g>
</g>
</svg>
